<?xml version="1.0" encoding="utf-8"?>
<!-- Generator: Adobe Illustrator 22.0.1, SVG Export Plug-In . SVG Version: 6.00 Build 0)  -->
<svg version="1.1"
	 id="Layer_1" xmlns:cc="http://creativecommons.org/ns#" xmlns:dc="http://purl.org/dc/elements/1.1/" xmlns:rdf="http://www.w3.org/1999/02/22-rdf-syntax-ns#" xmlns:svg="http://www.w3.org/2000/svg"
	 xmlns="http://www.w3.org/2000/svg" xmlns:xlink="http://www.w3.org/1999/xlink" x="0px" y="0px" viewBox="0 0 256 256"
	 style="enable-background:new 0 0 256 256;" xml:space="preserve">
<style type="text/css">
	.st0{fill:#75A928;}
	.st1{fill:#BC1142;}
</style>
<path d="M135.1,244.6l62-37.7c3.9-2.4,6.3-6.6,6.3-11.1l0.2-73.1c0-4.6-2.4-8.9-6.4-11.3c-23-13.4-31.1-15.5-16.6-23.5
	c3.3-0.9,6.7-1.6,7.7-5.8c5.7-1.5,6.9-4.2,7.5-7c1.5-1,6.5-3.8,6-8.7c2.8-2,4.3-4.5,3.6-8c3-3.3,3.8-6.1,2.5-8.6
	c3.6-4.5,2-6.9,0.5-9.3c2.7-5,0.3-10.3-7.2-9.4c-3-4.5-9.5-3.5-10.5-3.4c-1.1-1.4-2.6-2.7-7.2-2.1c-3-2.7-6.3-2.2-9.7-0.9
	c-4.1-3.2-6.8-0.6-9.9,0.3c-4.9-1.6-6.1,0.6-8.5,1.5c-5.4-1.1-7,1.3-9.6,4l-3-0.1c-8.1,4.8-12.1,14.5-13.6,19.5
	c-1.4-5-5.5-14.7-13.6-19.5l-3,0.1c-2.6-2.6-4.2-5.1-9.6-4c-2.4-0.9-3.6-3.1-8.5-1.5c-2-0.6-3.9-2-6.1-1.9c-1.1,0-2.4,0.5-3.8,1.6
	c-3.4-1.3-6.8-1.8-9.7,0.9c-4.6-0.6-6.1,0.6-7.2,2.1c-1,0-7.5-1-10.5,3.4c-7.5-0.9-9.9,4.4-7.2,9.4c-1.5,2.4-3.1,4.7,0.5,9.3
	c-1.3,2.5-0.5,5.3,2.5,8.6c-0.8,3.6,0.8,6.1,3.6,8C56,71.2,61,74,62.5,75c0.6,2.8,1.8,5.5,7.5,7c0.9,4.2,4.4,5,7.7,5.8
	c14.5,6,4,10.1-18.7,23.3c-4,2.3-6.5,6.6-6.5,11.3v72.6c0,4.6,2.4,8.8,6.3,11.1l62.8,38.3C125.7,247.1,130.9,247.1,135.1,244.6z"/>
<path class="st0" d="M72,44c21.5,11.1,34.1,20.1,40.9,27.7C109.4,85.8,91.1,86.4,84.4,86c1.4-0.6,2.5-1.4,2.9-2.6
	c-1.7-1.2-7.6-0.1-11.8-2.5c1.6-0.3,2.3-0.7,3.1-1.8c-3.9-1.3-8.2-2.3-10.7-4.4c1.3,0,2.6,0.3,4.4-0.9c-3.5-1.9-7.3-3.4-10.2-6.3
	c1.8,0,3.8,0,4.4-0.7c-3.2-2-5.9-4.2-8.2-6.6c2.5,0.3,3.6,0,4.2-0.4c-2.4-2.5-5.5-4.6-7-7.7c1.9,0.7,3.6,0.9,4.9-0.1
	c-0.8-1.9-4.4-3-6.4-7.3c2,0.2,4.1,0.4,4.5,0c-0.9-3.8-2.5-5.9-4.1-8.1c4.3-0.1,10.7,0,10.4-0.3l-2.6-2.7c4.2-1.1,8.4,0.2,11.5,1.1
	c1.4-1.1,0-2.5-1.7-3.9c3.5,0.5,6.7,1.3,9.6,2.4c1.5-1.4-1-2.8-2.2-4.2c5.5,1,7.8,2.5,10.1,4c1.7-1.6,0.1-3-1-4.4
	c4.1,1.5,6.2,3.5,8.5,5.4c0.8-1,1.9-1.8,0.5-4.2c2.9,1.7,5.1,3.7,6.8,5.9c1.8-1.2,1.1-2.7,1.1-4.2c3,2.5,5,5.1,7.3,7.7
	c0.5-0.3,0.9-1.5,1.3-3.4c7.3,7,17.5,24.8,2.6,31.8C103.9,57.2,88.8,49.6,72,44z"/>
<path class="st0" d="M186.3,44c-21.5,11.1-34.1,20.1-40.9,27.7c3.5,14.1,21.8,14.7,28.5,14.3c-1.4-0.6-2.5-1.4-2.9-2.6
	c1.7-1.2,7.6-0.1,11.8-2.5c-1.6-0.3-2.3-0.7-3.1-1.8c3.9-1.3,8.2-2.3,10.7-4.4c-1.3,0-2.6,0.3-4.4-0.9c3.5-1.9,7.3-3.4,10.2-6.3
	c-1.8,0-3.8,0-4.4-0.7c3.2-2,5.9-4.2,8.2-6.6c-2.5,0.3-3.6,0-4.2-0.4c2.4-2.5,5.5-4.6,7-7.7c-1.9,0.7-3.6,0.9-4.9-0.1
	c0.8-1.9,4.4-3,6.4-7.3c-2,0.2-4.1,0.4-4.5,0c0.9-3.8,2.5-5.9,4.1-8.1c-4.3-0.1-10.7,0-10.4-0.3l2.6-2.7c-4.2-1.1-8.4,0.2-11.5,1.1
	c-1.4-1.1,0-2.5,1.7-3.9c-3.5,0.5-6.7,1.3-9.6,2.4c-1.5-1.4,1-2.8,2.2-4.2c-5.5,1-7.8,2.5-10.1,4c-1.7-1.6-0.1-3,1-4.4
	c-4.1,1.5-6.2,3.5-8.5,5.4c-0.8-1-1.9-1.8-0.5-4.2c-2.9,1.7-5.1,3.7-6.8,5.9c-1.8-1.2-1.1-2.7-1.1-4.2c-3,2.5-5,5.1-7.3,7.7
	c-0.5-0.3-0.9-1.5-1.3-3.4c-7.3,7-17.5,24.8-2.6,31.8C154.4,57.2,169.5,49.6,186.3,44L186.3,44z"/>
<path class="st1" d="M123.2,79.8L76.4,108c-6.3,3.8-6.4,13,0,16.8l46.8,28.2c3.1,1.9,7,1.9,10.1,0l46.8-28.2c6.3-3.8,6.3-13,0-16.8
	l-46.8-28.1C130.2,78,126.4,78,123.2,79.8z"/>
<path class="st1" d="M58.9,139.7v53.7c0,3.4,1.8,6.6,4.7,8.4l46.1,27.8c6.5,4,14.9-0.8,14.9-8.4v-53.7c0-3.4-1.8-6.6-4.8-8.4
	l-46.1-27.8C67.2,127.3,58.9,132,58.9,139.7z"/>
<path class="st1" d="M197.7,139.7v53.7c0,3.4-1.8,6.6-4.8,8.4l-46.2,27.9c-6.5,3.9-14.9-0.8-14.9-8.4v-53.8c0-3.4,1.8-6.6,4.8-8.4
	l46.2-27.8C189.4,127.3,197.7,132,197.7,139.7z"/>
</svg>
